<svg width="302" height="302" viewBox="0 0 302 302" fill="none" xmlns="http://www.w3.org/2000/svg">
<path d="M75.5 75.5H100.667V100.667H75.5V75.5Z" fill="white"/>
<path d="M37.75 138.417V37.75H138.417V138.417H37.75ZM62.9167 62.9167V113.25H113.25V62.9167H62.9167Z" fill="white"/>
<path d="M163.583 163.583H201.333V188.75H163.583V163.583Z" fill="#8AEC71"/>
<path d="M201.333 188.75H226.5V163.583H264.25V201.333H226.5V213.917H239.083V226.5H264.25V264.25H239.083V239.083H213.917V264.25H163.583V213.917H188.75V239.083H201.333V188.75Z" fill="#8AEC71"/>
<path d="M226.5 75.5H201.333V100.667H226.5V75.5Z" fill="white"/>
<path d="M163.583 37.75V138.417H264.25V37.75H163.583ZM239.083 62.9167V113.25H188.75V62.9167H239.083Z" fill="white"/>
<path d="M75.5 201.333H100.667V226.5H75.5V201.333Z" fill="white"/>
<path d="M37.75 264.25V163.583H138.417V264.25H37.75ZM62.9167 188.75V239.083H113.25V188.75H62.9167Z" fill="white"/>
</svg>
