<svg width="236" height="236" viewBox="0 0 236 236" fill="none" xmlns="http://www.w3.org/2000/svg">
<path d="M220.791 100.956H145.73C141.509 100.941 137.365 99.8191 133.713 97.7019C130.061 95.5846 127.029 92.5462 124.919 88.8902C122.809 85.2341 121.695 81.0884 121.689 76.8671C121.683 72.6459 122.784 68.4969 124.883 64.8346L129.603 56.6401L91.7778 37.2357V59.0001H78.6667V34.5479L15.2744 60.7701C14.641 61.0187 14.0964 61.4513 13.7108 62.0121C13.3253 62.5729 13.1164 63.2362 13.1111 63.9168V199.617C13.1233 200.188 13.2739 200.749 13.5499 201.25C13.8259 201.75 14.2191 202.177 14.6959 202.493C15.1727 202.808 15.7189 203.004 16.2877 203.062C16.8565 203.121 17.4311 203.041 17.9622 202.829L78.6667 177.787V150.778H91.7778V180.475L150.778 210.696V183.556H163.889V208.401L220.463 190.701C221.167 190.468 221.779 190.02 222.214 189.42C222.649 188.82 222.885 188.099 222.889 187.358V100.825L220.791 100.956ZM91.7778 137.667H78.6667V111.445H91.7778V137.667ZM91.7778 98.3334H78.6667V72.1112H91.7778V98.3334ZM163.889 170.445H150.778V144.222H163.889V170.445ZM163.889 131.111H150.778V104.889H163.889V131.111Z" fill="black"/>
<path d="M176.017 7.47331L138.519 72.4389C137.712 73.7108 137.265 75.1777 137.227 76.6834C137.188 78.1892 137.558 79.6772 138.298 80.9891C139.038 82.301 140.12 83.3876 141.429 84.133C142.738 84.8785 144.224 85.2549 145.73 85.2222H220.791C222.258 85.2257 223.699 84.8419 224.969 84.1096C226.24 83.3772 227.294 82.3224 228.026 81.0517C228.758 79.781 229.141 78.3396 229.137 76.8732C229.133 75.4069 228.741 73.9676 228.002 72.7011L190.505 7.47331C189.765 6.20845 188.707 5.15927 187.436 4.43015C186.165 3.70103 184.726 3.31738 183.261 3.31738C181.795 3.31738 180.356 3.70103 179.085 4.43015C177.814 5.15927 176.756 6.20845 176.017 7.47331Z" fill="#1F7646"/>
</svg>
