<svg width="122" height="19" viewBox="0 0 122 19" fill="none" xmlns="http://www.w3.org/2000/svg">
<path d="M0.460002 14.9889C0.320607 14.9889 0.209092 14.9467 0.125455 14.8622C0.0418183 14.7778 0 14.6652 0 14.5244V0.696666C0 0.555926 0.0418183 0.443333 0.125455 0.358889C0.209092 0.26037 0.320607 0.211111 0.460002 0.211111H4.91366C6.36336 0.211111 7.5064 0.429259 8.34276 0.865556C9.19307 1.28778 9.79247 1.91407 10.141 2.74444C10.5034 3.57481 10.6985 4.63037 10.7264 5.91111C10.7403 6.33333 10.7473 6.88926 10.7473 7.57889C10.7473 8.28259 10.7403 8.84556 10.7264 9.26778C10.6985 10.6189 10.5034 11.7096 10.141 12.54C9.79247 13.3563 9.20701 13.9685 8.38458 14.3767C7.56215 14.7848 6.44003 14.9889 5.0182 14.9889H0.460002ZM4.91366 13.7222C6.02881 13.7222 6.907 13.5744 7.54821 13.2789C8.18943 12.9693 8.64943 12.4907 8.92822 11.8433C9.22095 11.1819 9.38125 10.2881 9.40913 9.16222C9.42307 8.74 9.43004 8.21222 9.43004 7.57889C9.43004 6.95963 9.42307 6.43889 9.40913 6.01667C9.38125 4.44037 9.01186 3.29333 8.30095 2.57556C7.60397 1.8437 6.44003 1.47778 4.80911 1.47778H1.31728V13.7222H4.91366Z" fill="#F2F2F2"/>
<path d="M17.1823 15.2C15.858 15.2 14.7917 14.7637 13.9832 13.8911C13.1747 13.0044 12.7147 11.8222 12.6032 10.3444L12.5823 9.5L12.6032 8.65555C12.7147 7.19185 13.1677 6.01667 13.9623 5.13C14.7708 4.24333 15.8441 3.8 17.1823 3.8C18.632 3.8 19.7611 4.28556 20.5696 5.25667C21.392 6.22778 21.8032 7.55778 21.8032 9.24667V9.56333C21.8032 9.70407 21.7544 9.81667 21.6568 9.90111C21.5732 9.98556 21.4617 10.0278 21.3223 10.0278H13.8786V10.2389C13.9065 10.9004 14.0529 11.5196 14.3177 12.0967C14.5965 12.6596 14.9798 13.117 15.4677 13.4689C15.9556 13.8067 16.5271 13.9756 17.1823 13.9756C17.949 13.9756 18.5693 13.8278 19.0432 13.5322C19.5311 13.2226 19.8796 12.913 20.0887 12.6033C20.2141 12.4344 20.3047 12.3289 20.3605 12.2867C20.4302 12.2444 20.5487 12.2233 20.7159 12.2233H21.0505C21.1759 12.2233 21.2805 12.2585 21.3641 12.3289C21.4478 12.3993 21.4896 12.4907 21.4896 12.6033C21.4896 12.8989 21.3014 13.2578 20.925 13.68C20.5626 14.0881 20.0538 14.447 19.3987 14.7567C18.7435 15.0522 18.0047 15.2 17.1823 15.2ZM20.5278 8.84556V8.76111C20.5278 7.67741 20.2211 6.7837 19.6077 6.08C19.0083 5.3763 18.1999 5.02444 17.1823 5.02444C16.1647 5.02444 15.3562 5.3763 14.7568 6.08C14.1714 6.7837 13.8786 7.67741 13.8786 8.76111V8.84556H20.5278Z" fill="#F2F2F2"/>
<path d="M24.2893 14.9889C24.1499 14.9889 24.0384 14.9467 23.9547 14.8622C23.8711 14.7778 23.8293 14.6652 23.8293 14.5244V4.47556C23.8293 4.33482 23.8711 4.22222 23.9547 4.13778C24.0384 4.05333 24.1499 4.01111 24.2893 4.01111H24.6447C24.7841 4.01111 24.8956 4.05333 24.9793 4.13778C25.0629 4.22222 25.1047 4.33482 25.1047 4.47556V5.46778C25.5229 4.91889 25.9969 4.5037 26.5266 4.22222C27.0702 3.94074 27.7672 3.8 28.6175 3.8C29.9835 3.8 31.036 4.24333 31.7748 5.13C32.5136 6.00259 32.8829 7.13555 32.8829 8.52889V14.5244C32.8829 14.6652 32.8411 14.7778 32.7575 14.8622C32.6739 14.9467 32.5623 14.9889 32.423 14.9889H32.0675C31.9281 14.9889 31.8166 14.9467 31.7329 14.8622C31.6493 14.7778 31.6075 14.6652 31.6075 14.5244V8.63444C31.6075 7.49444 31.3287 6.60778 30.7711 5.97444C30.2275 5.34111 29.4399 5.02444 28.4084 5.02444C27.4047 5.02444 26.6032 5.34815 26.0038 5.99556C25.4044 6.62889 25.1047 7.50852 25.1047 8.63444V14.5244C25.1047 14.6652 25.0629 14.7778 24.9793 14.8622C24.8956 14.9467 24.7841 14.9889 24.6447 14.9889H24.2893Z" fill="#F2F2F2"/>
<path d="M39.5497 15.2C38.1 15.2 36.9779 14.7778 36.1833 13.9333C35.3888 13.0748 34.9706 11.8785 34.9288 10.3444L34.9079 9.5L34.9288 8.65555C34.9706 7.12148 35.3888 5.93222 36.1833 5.08778C36.9779 4.22926 38.1 3.8 39.5497 3.8C40.4697 3.8 41.2503 3.96889 41.8915 4.30667C42.5467 4.63037 43.0346 5.05259 43.3552 5.57333C43.6758 6.08 43.85 6.60778 43.8779 7.15667C43.8919 7.28333 43.85 7.39593 43.7525 7.49444C43.6549 7.57889 43.5434 7.62111 43.4179 7.62111H43.1252C42.9858 7.62111 42.8812 7.59296 42.8115 7.53667C42.7558 7.4663 42.6931 7.34667 42.6234 7.17778C42.3446 6.4037 41.9543 5.85481 41.4524 5.53111C40.9506 5.19333 40.3164 5.02444 39.5497 5.02444C38.5461 5.02444 37.7446 5.33407 37.1452 5.95333C36.5597 6.55852 36.2461 7.49444 36.2042 8.76111L36.1833 9.5L36.2042 10.2389C36.2461 11.5056 36.5597 12.4485 37.1452 13.0678C37.7446 13.673 38.5461 13.9756 39.5497 13.9756C40.3164 13.9756 40.9506 13.8137 41.4524 13.49C41.9543 13.1522 42.3446 12.5963 42.6234 11.8222C42.6931 11.6533 42.7558 11.5407 42.8115 11.4844C42.8812 11.4141 42.9858 11.3789 43.1252 11.3789H43.4179C43.5434 11.3789 43.6549 11.4281 43.7525 11.5267C43.85 11.6111 43.8919 11.7167 43.8779 11.8433C43.85 12.3922 43.6758 12.927 43.3552 13.4478C43.0346 13.9544 42.5467 14.3767 41.8915 14.7144C41.2503 15.0381 40.4697 15.2 39.5497 15.2Z" fill="#F2F2F2"/>
<path d="M46.1389 1.75222C45.9995 1.75222 45.888 1.71 45.8043 1.62556C45.7207 1.54111 45.6789 1.42852 45.6789 1.28778V0.485556C45.6789 0.344815 45.7207 0.232223 45.8043 0.147778C45.888 0.0492595 45.9995 0 46.1389 0H46.9334C47.0728 0 47.1843 0.0492595 47.268 0.147778C47.3656 0.232223 47.4143 0.344815 47.4143 0.485556V1.28778C47.4143 1.42852 47.3656 1.54111 47.268 1.62556C47.1843 1.71 47.0728 1.75222 46.9334 1.75222H46.1389ZM46.3689 14.9889C46.2295 14.9889 46.118 14.9467 46.0343 14.8622C45.9507 14.7778 45.9089 14.6652 45.9089 14.5244V4.47556C45.9089 4.33482 45.9507 4.22222 46.0343 4.13778C46.118 4.05333 46.2295 4.01111 46.3689 4.01111H46.7243C46.8637 4.01111 46.9752 4.05333 47.0589 4.13778C47.1425 4.22222 47.1843 4.33482 47.1843 4.47556V14.5244C47.1843 14.6652 47.1425 14.7778 47.0589 14.8622C46.9752 14.9467 46.8637 14.9889 46.7243 14.9889H46.3689Z" fill="#F2F2F2"/>
<path d="M53.4917 14.9889C52.4602 14.9889 51.7284 14.6793 51.2963 14.06C50.8641 13.4267 50.6481 12.5611 50.6481 11.4633V5.23556H49.0172C48.8778 5.23556 48.7663 5.19333 48.6826 5.10889C48.599 5.02444 48.5572 4.91185 48.5572 4.77111V4.47556C48.5572 4.33482 48.599 4.22222 48.6826 4.13778C48.7663 4.05333 48.8778 4.01111 49.0172 4.01111H50.6481V0.464445C50.6481 0.323704 50.6899 0.211111 50.7735 0.126666C50.8572 0.0422221 50.9687 0 51.1081 0H51.4635C51.6029 0 51.7144 0.0422221 51.7981 0.126666C51.8817 0.211111 51.9235 0.323704 51.9235 0.464445V4.01111H54.5163C54.6557 4.01111 54.7672 4.05333 54.8508 4.13778C54.9345 4.22222 54.9763 4.33482 54.9763 4.47556V4.77111C54.9763 4.91185 54.9345 5.02444 54.8508 5.10889C54.7672 5.19333 54.6557 5.23556 54.5163 5.23556H51.9235V11.3789C51.9235 12.167 52.049 12.7652 52.2999 13.1733C52.5648 13.5674 52.9969 13.7644 53.5963 13.7644H54.7254C54.8648 13.7644 54.9763 13.8067 55.0599 13.8911C55.1436 13.9756 55.1854 14.0881 55.1854 14.2289V14.5244C55.1854 14.6652 55.1436 14.7778 55.0599 14.8622C54.9763 14.9467 54.8648 14.9889 54.7254 14.9889H53.4917Z" fill="#F2F2F2"/>
<path d="M58.455 19C58.3435 19 58.246 18.9578 58.1623 18.8733C58.0787 18.7889 58.0369 18.6904 58.0369 18.5778C58.0369 18.5074 58.0787 18.3667 58.1623 18.1556L59.7723 14.3556L55.7787 4.85556C55.695 4.64444 55.6532 4.5037 55.6532 4.43333C55.6532 4.32074 55.695 4.22222 55.7787 4.13778C55.8623 4.05333 55.9599 4.01111 56.0714 4.01111H56.5105C56.7335 4.01111 56.8938 4.11667 56.9914 4.32778L60.5041 12.6878L64.1005 4.32778C64.212 4.11667 64.3723 4.01111 64.5814 4.01111H64.9996C65.1111 4.01111 65.2087 4.05333 65.2923 4.13778C65.376 4.22222 65.4178 4.32074 65.4178 4.43333C65.4178 4.5037 65.376 4.64444 65.2923 4.85556L59.3541 18.6833C59.2566 18.8944 59.0963 19 58.8732 19H58.455Z" fill="#F2F2F2"/>
<path d="M70.6707 14.9889C70.5313 14.9889 70.4129 14.9396 70.3153 14.8411C70.2177 14.7426 70.1689 14.623 70.1689 14.4822V2.80778H66.3007C66.1613 2.80778 66.0428 2.75852 65.9453 2.66C65.8477 2.56148 65.7989 2.44185 65.7989 2.30111V0.738889C65.7989 0.584074 65.8407 0.457407 65.9244 0.358889C66.0219 0.26037 66.1474 0.211111 66.3007 0.211111H76.9644C77.1177 0.211111 77.2432 0.26037 77.3408 0.358889C77.4383 0.457407 77.4871 0.584074 77.4871 0.738889V2.30111C77.4871 2.44185 77.4383 2.56148 77.3408 2.66C77.2432 2.75852 77.1177 2.80778 76.9644 2.80778H73.1171V14.4822C73.1171 14.623 73.0683 14.7426 72.9708 14.8411C72.8732 14.9396 72.7477 14.9889 72.5944 14.9889H70.6707Z" fill="#F2F2F2"/>
<path d="M77.7189 14.9889C77.5795 14.9889 77.461 14.9396 77.3635 14.8411C77.2659 14.7426 77.2171 14.623 77.2171 14.4822V4.53889C77.2171 4.39815 77.2659 4.27852 77.3635 4.18C77.461 4.06741 77.5795 4.01111 77.7189 4.01111H79.4126C79.5659 4.01111 79.6914 4.06037 79.7889 4.15889C79.8865 4.25741 79.9353 4.38407 79.9353 4.53889V5.40444C80.2698 4.95407 80.688 4.60926 81.1898 4.37C81.7056 4.13074 82.2911 4.01111 82.9462 4.01111H83.8035C83.9568 4.01111 84.0753 4.06037 84.159 4.15889C84.2565 4.24333 84.3053 4.36296 84.3053 4.51778V6.03778C84.3053 6.17852 84.2565 6.29815 84.159 6.39667C84.0753 6.49519 83.9568 6.54444 83.8035 6.54444H82.1726C81.5174 6.54444 81.0017 6.73444 80.6253 7.11444C80.2489 7.49444 80.0608 8.01519 80.0608 8.67667V14.4822C80.0608 14.623 80.012 14.7426 79.9144 14.8411C79.8168 14.9396 79.6914 14.9889 79.538 14.9889H77.7189Z" fill="#F2F2F2"/>
<path d="M88.1982 15.2C87.4873 15.2 86.8321 15.0593 86.2327 14.7778C85.6473 14.4822 85.1803 14.0881 84.8318 13.5956C84.4973 13.103 84.33 12.5611 84.33 11.97C84.33 11.013 84.7133 10.2389 85.48 9.64778C86.2467 9.05667 87.2991 8.65556 88.6373 8.44444L91.5018 8.02222V7.57889C91.5018 6.95963 91.3485 6.49518 91.0418 6.18555C90.7352 5.87593 90.2403 5.72111 89.5573 5.72111C89.0973 5.72111 88.7209 5.81259 88.4282 5.99556C88.1494 6.16444 87.9264 6.33333 87.7591 6.50222C87.5918 6.68518 87.4803 6.80481 87.4245 6.86111C87.3688 7.03 87.2642 7.11444 87.1109 7.11444H85.5009C85.3754 7.11444 85.2639 7.07222 85.1664 6.98778C85.0827 6.90333 85.0409 6.79074 85.0409 6.65C85.0548 6.29815 85.2221 5.89704 85.5427 5.44667C85.8773 4.9963 86.3861 4.60926 87.0691 4.28556C87.7521 3.96185 88.5885 3.8 89.5782 3.8C91.223 3.8 92.4218 4.17296 93.1746 4.91889C93.9273 5.66481 94.3037 6.64296 94.3037 7.85333V14.4822C94.3037 14.623 94.2549 14.7426 94.1573 14.8411C94.0737 14.9396 93.9552 14.9889 93.8018 14.9889H92.1082C91.9688 14.9889 91.8503 14.9396 91.7527 14.8411C91.6552 14.7426 91.6064 14.623 91.6064 14.4822V13.6589C91.2997 14.1093 90.8606 14.4822 90.2891 14.7778C89.7315 15.0593 89.0346 15.2 88.1982 15.2ZM88.9091 13.1944C89.6758 13.1944 90.303 12.9411 90.7909 12.4344C91.2788 11.9278 91.5227 11.1889 91.5227 10.2178V9.77444L89.4318 10.1122C88.6233 10.2389 88.01 10.443 87.5918 10.7244C87.1876 11.0059 86.9855 11.3507 86.9855 11.7589C86.9855 12.2093 87.1736 12.5611 87.55 12.8144C87.9264 13.0678 88.3794 13.1944 88.9091 13.1944Z" fill="#F2F2F2"/>
<path d="M105.893 16.3611C105.726 16.3611 105.58 16.3119 105.454 16.2133C105.343 16.1289 105.238 16.0163 105.141 15.8756L104.367 14.82C103.726 15.0733 102.98 15.2 102.13 15.2C100.234 15.2 98.7564 14.7144 97.697 13.7433C96.6376 12.7722 96.0731 11.3296 96.0033 9.41556C95.9894 9.00741 95.9824 8.40926 95.9824 7.62111C95.9824 6.81889 95.9894 6.2137 96.0033 5.80555C96.0591 3.9337 96.6306 2.49815 97.7179 1.49889C98.8191 0.499629 100.29 0 102.13 0C103.97 0 105.433 0.499629 106.521 1.49889C107.608 2.49815 108.179 3.9337 108.235 5.80555C108.263 6.62185 108.277 7.22704 108.277 7.62111C108.277 8.00111 108.263 8.59926 108.235 9.41556C108.179 11.2452 107.678 12.6456 106.73 13.6167L108.193 15.7067C108.235 15.7911 108.256 15.8615 108.256 15.9178V15.96C108.256 16.0726 108.214 16.1641 108.131 16.2344C108.047 16.3189 107.949 16.3611 107.838 16.3611H105.893ZM102.13 12.7722C103.064 12.7722 103.802 12.4907 104.346 11.9278C104.904 11.3507 105.203 10.4781 105.245 9.31C105.273 8.46556 105.287 7.89556 105.287 7.6C105.287 7.2763 105.273 6.7063 105.245 5.89C105.203 4.72185 104.904 3.8563 104.346 3.29333C103.789 2.7163 103.05 2.42778 102.13 2.42778C101.196 2.42778 100.45 2.7163 99.8925 3.29333C99.3349 3.8563 99.0352 4.72185 98.9934 5.89C98.9794 6.29815 98.9725 6.86815 98.9725 7.6C98.9725 8.31778 98.9794 8.88778 98.9934 9.31C99.0352 10.4781 99.3349 11.3507 99.8925 11.9278C100.45 12.4907 101.196 12.7722 102.13 12.7722Z" fill="#F2F2F2"/>
<path d="M110.814 14.9889C110.674 14.9889 110.556 14.9396 110.458 14.8411C110.361 14.7426 110.312 14.623 110.312 14.4822V0.738889C110.312 0.584074 110.354 0.457407 110.437 0.358889C110.535 0.26037 110.66 0.211111 110.814 0.211111H116.229C117.93 0.211111 119.261 0.612222 120.223 1.41444C121.198 2.21667 121.686 3.35667 121.686 4.83444C121.686 5.86185 121.435 6.72741 120.934 7.43111C120.446 8.12074 119.763 8.62037 118.885 8.93L121.937 14.3133C121.979 14.3978 122 14.4752 122 14.5456C122 14.6722 121.951 14.7778 121.854 14.8622C121.77 14.9467 121.672 14.9889 121.561 14.9889H119.658C119.435 14.9889 119.261 14.9396 119.135 14.8411C119.024 14.7426 118.919 14.6019 118.822 14.4189L116.125 9.41556H113.218V14.4822C113.218 14.623 113.169 14.7426 113.072 14.8411C112.988 14.9396 112.87 14.9889 112.716 14.9889H110.814ZM116.166 7.03C117.003 7.03 117.63 6.84 118.048 6.46C118.48 6.08 118.696 5.53111 118.696 4.81333C118.696 4.09555 118.48 3.53963 118.048 3.14556C117.63 2.75148 117.003 2.55444 116.166 2.55444H113.218V7.03H116.166Z" fill="#F2F2F2"/>
</svg>
