<svg width="263" height="41" viewBox="0 0 263 41" fill="none" xmlns="http://www.w3.org/2000/svg">
<path d="M0.99 31.95C0.69 31.95 0.45 31.86 0.27 31.68C0.0899999 31.5 0 31.26 0 30.96V1.485C0 1.185 0.0899999 0.945 0.27 0.765001C0.45 0.555 0.69 0.45 0.99 0.45H10.575C13.695 0.45 16.155 0.915 17.955 1.845C19.785 2.745 21.075 4.08 21.825 5.85C22.605 7.62 23.025 9.87 23.085 12.6C23.115 13.5 23.13 14.685 23.13 16.155C23.13 17.655 23.115 18.855 23.085 19.755C23.025 22.635 22.605 24.96 21.825 26.73C21.075 28.47 19.815 29.775 18.045 30.645C16.275 31.515 13.86 31.95 10.8 31.95H0.99ZM10.575 29.25C12.975 29.25 14.865 28.935 16.245 28.305C17.625 27.645 18.615 26.625 19.215 25.245C19.845 23.835 20.19 21.93 20.25 19.53C20.28 18.63 20.295 17.505 20.295 16.155C20.295 14.835 20.28 13.725 20.25 12.825C20.19 9.465 19.395 7.02 17.865 5.49C16.365 3.93 13.86 3.15 10.35 3.15H2.835V29.25H10.575Z" fill="black"/>
<path d="M36.9791 32.4C34.1291 32.4 31.8341 31.47 30.0941 29.61C28.3541 27.72 27.3641 25.2 27.1241 22.05L27.0791 20.25L27.1241 18.45C27.3641 15.33 28.3391 12.825 30.0491 10.935C31.7891 9.045 34.0991 8.1 36.9791 8.1C40.0991 8.1 42.5291 9.135 44.2691 11.205C46.0391 13.275 46.9241 16.11 46.9241 19.71V20.385C46.9241 20.685 46.8191 20.925 46.6091 21.105C46.4291 21.285 46.1891 21.375 45.8891 21.375H29.8691V21.825C29.9291 23.235 30.2441 24.555 30.8141 25.785C31.4141 26.985 32.2391 27.96 33.2891 28.71C34.3391 29.43 35.5691 29.79 36.9791 29.79C38.6291 29.79 39.9641 29.475 40.9841 28.845C42.0341 28.185 42.7841 27.525 43.2341 26.865C43.5041 26.505 43.6991 26.28 43.8191 26.19C43.9691 26.1 44.2241 26.055 44.5841 26.055H45.3041C45.5741 26.055 45.7991 26.13 45.9791 26.28C46.1591 26.43 46.2491 26.625 46.2491 26.865C46.2491 27.495 45.8441 28.26 45.0341 29.16C44.2541 30.03 43.1591 30.795 41.7491 31.455C40.3391 32.085 38.7491 32.4 36.9791 32.4ZM44.1791 18.855V18.675C44.1791 16.365 43.5191 14.46 42.1991 12.96C40.9091 11.46 39.1691 10.71 36.9791 10.71C34.7891 10.71 33.0491 11.46 31.7591 12.96C30.4991 14.46 29.8691 16.365 29.8691 18.675V18.855H44.1791Z" fill="black"/>
<path d="M52.2745 31.95C51.9745 31.95 51.7345 31.86 51.5545 31.68C51.3745 31.5 51.2845 31.26 51.2845 30.96V9.54C51.2845 9.24 51.3745 9 51.5545 8.82C51.7345 8.64 51.9745 8.55 52.2745 8.55H53.0395C53.3395 8.55 53.5795 8.64 53.7595 8.82C53.9395 9 54.0295 9.24 54.0295 9.54V11.655C54.9295 10.485 55.9495 9.6 57.0895 9C58.2595 8.4 59.7595 8.1 61.5895 8.1C64.5295 8.1 66.7945 9.045 68.3845 10.935C69.9745 12.795 70.7695 15.21 70.7695 18.18V30.96C70.7695 31.26 70.6795 31.5 70.4995 31.68C70.3195 31.86 70.0795 31.95 69.7795 31.95H69.0145C68.7145 31.95 68.4745 31.86 68.2945 31.68C68.1145 31.5 68.0245 31.26 68.0245 30.96V18.405C68.0245 15.975 67.4245 14.085 66.2245 12.735C65.0545 11.385 63.3595 10.71 61.1395 10.71C58.9795 10.71 57.2545 11.4 55.9645 12.78C54.6745 14.13 54.0295 16.005 54.0295 18.405V30.96C54.0295 31.26 53.9395 31.5 53.7595 31.68C53.5795 31.86 53.3395 31.95 53.0395 31.95H52.2745Z" fill="black"/>
<path d="M85.1175 32.4C81.9975 32.4 79.5825 31.5 77.8725 29.7C76.1625 27.87 75.2625 25.32 75.1725 22.05L75.1275 20.25L75.1725 18.45C75.2625 15.18 76.1625 12.645 77.8725 10.845C79.5825 9.015 81.9975 8.1 85.1175 8.1C87.0975 8.1 88.7775 8.46 90.1575 9.18C91.5675 9.87 92.6175 10.77 93.3075 11.88C93.9975 12.96 94.3725 14.085 94.4325 15.255C94.4625 15.525 94.3725 15.765 94.1625 15.975C93.9525 16.155 93.7125 16.245 93.4425 16.245H92.8125C92.5125 16.245 92.2875 16.185 92.1375 16.065C92.0175 15.915 91.8825 15.66 91.7325 15.3C91.1325 13.65 90.2925 12.48 89.2125 11.79C88.1325 11.07 86.7675 10.71 85.1175 10.71C82.9575 10.71 81.2325 11.37 79.9425 12.69C78.6825 13.98 78.0075 15.975 77.9175 18.675L77.8725 20.25L77.9175 21.825C78.0075 24.525 78.6825 26.535 79.9425 27.855C81.2325 29.145 82.9575 29.79 85.1175 29.79C86.7675 29.79 88.1325 29.445 89.2125 28.755C90.2925 28.035 91.1325 26.85 91.7325 25.2C91.8825 24.84 92.0175 24.6 92.1375 24.48C92.2875 24.33 92.5125 24.255 92.8125 24.255H93.4425C93.7125 24.255 93.9525 24.36 94.1625 24.57C94.3725 24.75 94.4625 24.975 94.4325 25.245C94.3725 26.415 93.9975 27.555 93.3075 28.665C92.6175 29.745 91.5675 30.645 90.1575 31.365C88.7775 32.055 87.0975 32.4 85.1175 32.4Z" fill="black"/>
<path d="M99.2985 3.735C98.9985 3.735 98.7585 3.645 98.5785 3.465C98.3985 3.285 98.3085 3.045 98.3085 2.745V1.035C98.3085 0.735 98.3985 0.495001 98.5785 0.315001C98.7585 0.105 98.9985 0 99.2985 0H101.008C101.308 0 101.548 0.105 101.728 0.315001C101.938 0.495001 102.043 0.735 102.043 1.035V2.745C102.043 3.045 101.938 3.285 101.728 3.465C101.548 3.645 101.308 3.735 101.008 3.735H99.2985ZM99.7935 31.95C99.4935 31.95 99.2535 31.86 99.0735 31.68C98.8935 31.5 98.8035 31.26 98.8035 30.96V9.54C98.8035 9.24 98.8935 9 99.0735 8.82C99.2535 8.64 99.4935 8.55 99.7935 8.55H100.558C100.858 8.55 101.098 8.64 101.278 8.82C101.458 9 101.548 9.24 101.548 9.54V30.96C101.548 31.26 101.458 31.5 101.278 31.68C101.098 31.86 100.858 31.95 100.558 31.95H99.7935Z" fill="black"/>
<path d="M115.123 31.95C112.903 31.95 111.328 31.29 110.398 29.97C109.468 28.62 109.003 26.775 109.003 24.435V11.16H105.493C105.193 11.16 104.953 11.07 104.773 10.89C104.593 10.71 104.503 10.47 104.503 10.17V9.54C104.503 9.24 104.593 9 104.773 8.82C104.953 8.64 105.193 8.55 105.493 8.55H109.003V0.990001C109.003 0.690001 109.093 0.45 109.273 0.269999C109.453 0.0899997 109.693 0 109.993 0H110.758C111.058 0 111.298 0.0899997 111.478 0.269999C111.658 0.45 111.748 0.690001 111.748 0.990001V8.55H117.328C117.628 8.55 117.868 8.64 118.048 8.82C118.228 9 118.318 9.24 118.318 9.54V10.17C118.318 10.47 118.228 10.71 118.048 10.89C117.868 11.07 117.628 11.16 117.328 11.16H111.748V24.255C111.748 25.935 112.018 27.21 112.558 28.08C113.128 28.92 114.058 29.34 115.348 29.34H117.778C118.078 29.34 118.318 29.43 118.498 29.61C118.678 29.79 118.768 30.03 118.768 30.33V30.96C118.768 31.26 118.678 31.5 118.498 31.68C118.318 31.86 118.078 31.95 117.778 31.95H115.123Z" fill="black"/>
<path d="M125.805 40.5C125.565 40.5 125.355 40.41 125.175 40.23C124.995 40.05 124.905 39.84 124.905 39.6C124.905 39.45 124.995 39.15 125.175 38.7L128.64 30.6L120.045 10.35C119.865 9.9 119.775 9.6 119.775 9.45C119.775 9.21 119.865 9 120.045 8.82C120.225 8.64 120.435 8.55 120.675 8.55H121.62C122.1 8.55 122.445 8.775 122.655 9.225L130.215 27.045L137.955 9.225C138.195 8.775 138.54 8.55 138.99 8.55H139.89C140.13 8.55 140.34 8.64 140.52 8.82C140.7 9 140.79 9.21 140.79 9.45C140.79 9.6 140.7 9.9 140.52 10.35L127.74 39.825C127.53 40.275 127.185 40.5 126.705 40.5H125.805Z" fill="black"/>
<path d="M152.095 31.95C151.795 31.95 151.54 31.845 151.33 31.635C151.12 31.425 151.015 31.17 151.015 30.87V5.985H142.69C142.39 5.985 142.135 5.88 141.925 5.67C141.715 5.46 141.61 5.205 141.61 4.905V1.575C141.61 1.245 141.7 0.975 141.88 0.765001C142.09 0.555 142.36 0.45 142.69 0.45H165.64C165.97 0.45 166.24 0.555 166.45 0.765001C166.66 0.975 166.765 1.245 166.765 1.575V4.905C166.765 5.205 166.66 5.46 166.45 5.67C166.24 5.88 165.97 5.985 165.64 5.985H157.36V30.87C157.36 31.17 157.255 31.425 157.045 31.635C156.835 31.845 156.565 31.95 156.235 31.95H152.095Z" fill="black"/>
<path d="M167.264 31.95C166.964 31.95 166.709 31.845 166.499 31.635C166.289 31.425 166.184 31.17 166.184 30.87V9.675C166.184 9.375 166.289 9.12 166.499 8.91C166.709 8.67 166.964 8.55 167.264 8.55H170.909C171.239 8.55 171.509 8.655 171.719 8.865C171.929 9.075 172.034 9.345 172.034 9.675V11.52C172.754 10.56 173.654 9.825 174.734 9.315C175.844 8.805 177.104 8.55 178.514 8.55H180.359C180.689 8.55 180.944 8.655 181.124 8.865C181.334 9.045 181.439 9.3 181.439 9.63V12.87C181.439 13.17 181.334 13.425 181.124 13.635C180.944 13.845 180.689 13.95 180.359 13.95H176.849C175.439 13.95 174.329 14.355 173.519 15.165C172.709 15.975 172.304 17.085 172.304 18.495V30.87C172.304 31.17 172.199 31.425 171.989 31.635C171.779 31.845 171.509 31.95 171.179 31.95H167.264Z" fill="black"/>
<path d="M189.817 32.4C188.287 32.4 186.877 32.1 185.587 31.5C184.327 30.87 183.322 30.03 182.572 28.98C181.852 27.93 181.492 26.775 181.492 25.515C181.492 23.475 182.317 21.825 183.967 20.565C185.617 19.305 187.882 18.45 190.762 18L196.927 17.1V16.155C196.927 14.835 196.597 13.845 195.937 13.185C195.277 12.525 194.212 12.195 192.742 12.195C191.752 12.195 190.942 12.39 190.312 12.78C189.712 13.14 189.232 13.5 188.872 13.86C188.512 14.25 188.272 14.505 188.152 14.625C188.032 14.985 187.807 15.165 187.477 15.165H184.012C183.742 15.165 183.502 15.075 183.292 14.895C183.112 14.715 183.022 14.475 183.022 14.175C183.052 13.425 183.412 12.57 184.102 11.61C184.822 10.65 185.917 9.825 187.387 9.135C188.857 8.445 190.657 8.1 192.787 8.1C196.327 8.1 198.907 8.895 200.527 10.485C202.147 12.075 202.957 14.16 202.957 16.74V30.87C202.957 31.17 202.852 31.425 202.642 31.635C202.462 31.845 202.207 31.95 201.877 31.95H198.232C197.932 31.95 197.677 31.845 197.467 31.635C197.257 31.425 197.152 31.17 197.152 30.87V29.115C196.492 30.075 195.547 30.87 194.317 31.5C193.117 32.1 191.617 32.4 189.817 32.4ZM191.347 28.125C192.997 28.125 194.347 27.585 195.397 26.505C196.447 25.425 196.972 23.85 196.972 21.78V20.835L192.472 21.555C190.732 21.825 189.412 22.26 188.512 22.86C187.642 23.46 187.207 24.195 187.207 25.065C187.207 26.025 187.612 26.775 188.422 27.315C189.232 27.855 190.207 28.125 191.347 28.125Z" fill="black"/>
<path d="M227.9 34.875C227.54 34.875 227.225 34.77 226.955 34.56C226.715 34.38 226.49 34.14 226.28 33.84L224.615 31.59C223.235 32.13 221.63 32.4 219.8 32.4C215.72 32.4 212.54 31.365 210.26 29.295C207.98 27.225 206.765 24.15 206.615 20.07C206.585 19.2 206.57 17.925 206.57 16.245C206.57 14.535 206.585 13.245 206.615 12.375C206.735 8.385 207.965 5.325 210.305 3.195C212.675 1.065 215.84 0 219.8 0C223.76 0 226.91 1.065 229.25 3.195C231.59 5.325 232.82 8.385 232.94 12.375C233 14.115 233.03 15.405 233.03 16.245C233.03 17.055 233 18.33 232.94 20.07C232.82 23.97 231.74 26.955 229.7 29.025L232.85 33.48C232.94 33.66 232.985 33.81 232.985 33.93V34.02C232.985 34.26 232.895 34.455 232.715 34.605C232.535 34.785 232.325 34.875 232.085 34.875H227.9ZM219.8 27.225C221.81 27.225 223.4 26.625 224.57 25.425C225.77 24.195 226.415 22.335 226.505 19.845C226.565 18.045 226.595 16.83 226.595 16.2C226.595 15.51 226.565 14.295 226.505 12.555C226.415 10.065 225.77 8.22 224.57 7.02C223.37 5.79 221.78 5.175 219.8 5.175C217.79 5.175 216.185 5.79 214.985 7.02C213.785 8.22 213.14 10.065 213.05 12.555C213.02 13.425 213.005 14.64 213.005 16.2C213.005 17.73 213.02 18.945 213.05 19.845C213.14 22.335 213.785 24.195 214.985 25.425C216.185 26.625 217.79 27.225 219.8 27.225Z" fill="black"/>
<path d="M238.489 31.95C238.189 31.95 237.934 31.845 237.724 31.635C237.514 31.425 237.409 31.17 237.409 30.87V1.575C237.409 1.245 237.499 0.975 237.679 0.765001C237.889 0.555 238.159 0.45 238.489 0.45H250.144C253.804 0.45 256.669 1.305 258.739 3.015C260.839 4.725 261.889 7.155 261.889 10.305C261.889 12.495 261.349 14.34 260.269 15.84C259.219 17.31 257.749 18.375 255.859 19.035L262.429 30.51C262.519 30.69 262.564 30.855 262.564 31.005C262.564 31.275 262.459 31.5 262.249 31.68C262.069 31.86 261.859 31.95 261.619 31.95H257.524C257.044 31.95 256.669 31.845 256.399 31.635C256.159 31.425 255.934 31.125 255.724 30.735L249.919 20.07H243.664V30.87C243.664 31.17 243.559 31.425 243.349 31.635C243.169 31.845 242.914 31.95 242.584 31.95H238.489ZM250.009 14.985C251.809 14.985 253.159 14.58 254.059 13.77C254.989 12.96 255.454 11.79 255.454 10.26C255.454 8.73 254.989 7.545 254.059 6.705C253.159 5.865 251.809 5.445 250.009 5.445H243.664V14.985H250.009Z" fill="black"/>
</svg>
